:SAMPLES-PER-SECOND 30
:FULLY-SPECIFIED
:DEGREES
1507
root  34.398 39.739 9.65502 38.3601 85.1955 39.0925
RightUpLeg  -11.2447 -20.5381 -11.3878
RightLeg  19.2586 -1.78589 -0.834354
RightFoot  -1.30347 -0.408613 4.56723
RightToes  0.000481921 0.542163 -0.142578
Spine  21.5268 -2.78014 0.600426
Spine1  9.89739 -4.09674 4.26517
HEad  2.39446 8.55435 -11.8264
LeftShoulder1  6.76478 -10.3859 -42.3019
LeftArm  -9.64376 21.5426 -31.4107
LeftForeArm  -170.811 -58.5426 -165.369
LeftHand  -0.25398 0.0180481 5.50724
RightShoulder  5.09216 9.32422 33.7442
RightArm  -8.30868 -20.8607 42.7411
RightForeArm  179.508 53.6384 167.088
RightHand  -0.319424 3.15826 -4.59132
LeftUpLeg  -7.53491 29.0708 5.42554
LeftLeg  17.0756 1.64756 0.419875
LeftFoot  -2.30859 0.427477 -5.23355
LeftToes  1.06244e-005 4.65869e-005 -8.65518e-006
1508
root  34.3199 39.7659 9.73032 121.808 86.8131 122.263
RightUpLeg  -9.8207 -23.8319 -12.5176
RightLeg  19.3589 -4.1338 -1.62244
RightFoot  -1.75101 -0.456637 5.30003
RightToes  0.000481921 0.542163 -0.142578
Spine  20.911 -1.82876 3.81063
Spine1  9.80088 -1.60101 1.2065
HEad  3.32593 -0.531979 -7.55345
LeftShoulder1  7.1689 -11.3705 -41.8311
LeftArm  -9.05716 24.7865 -30.8716
LeftForeArm  -169.318 -58.7396 -165.366
LeftHand  -0.25398 0.0180481 5.50724
RightShoulder  4.56425 8.39255 32.4244
RightArm  -12.6715 -14.6929 39.0824
RightForeArm  179.054 53.2439 167.249
RightHand  -0.130241 0.705228 -2.47396
LeftUpLeg  -8.90114 24.6085 4.14243
LeftLeg  16.0942 0.469976 -0.218993
LeftFoot  -1.21436 0.44036 -4.88802
LeftToes  1.06244e-005 4.65869e-005 -8.65518e-006
1509
root  34.1593 39.7791 9.85316 160.591 82.0438 161.011
RightUpLeg  -8.56208 -25.7586 -13.4269
RightLeg  19.6286 -6.78685 -2.60217
RightFoot  -2.04894 -0.495185 5.91252
RightToes  0.000481921 0.542163 -0.142578
Spine  21.0671 -0.877694 7.78992
Spine1  9.78755 1.42426 -3.26017
HEad  3.82157 -9.14999 -3.79336
LeftShoulder1  7.13681 -11.7827 -40.4081
LeftArm  -7.63409 23.8738 -28.6668
LeftForeArm  -167.195 -57.7896 -166.058
LeftHand  -0.25398 0.0180481 5.50724
RightShoulder  4.01979 7.66698 30.017
RightArm  -19.3402 -5.80171 33.8605
RightForeArm  175.817 55.9506 165.767
RightHand  -0.0317435 -2.78664 -0.822816
LeftUpLeg  -9.62987 21.0489 3.35111
LeftLeg  14.8907 -0.57804 -0.99348
LeftFoot  -0.0821633 0.441758 -4.47747
LeftToes  1.06244e-005 4.65869e-005 -8.65518e-006
1510
root  33.929 39.7705 10.0133 163.802 78.2733 164.204
RightUpLeg  -8.15347 -26.5168 -13.9122
RightLeg  20.3586 -9.17712 -3.80075
RightFoot  -2.24424 -0.509458 6.20402
RightToes  0.000481921 0.542163 -0.142578
Spine  21.8372 0.0352485 11.3792
Spine1  9.64814 4.41553 -7.80907
HEad  4.40081 -15.17 -1.98906
LeftShoulder1  6.83318 -11.5931 -39.0598
LeftArm  -7.35418 20.3242 -25.9272
LeftForeArm  -168.29 -57.1572 -166.307
LeftHand  -0.25398 0.0180481 5.50724
RightShoulder  3.38608 6.86188 26.6007
RightArm  -26.2678 5.79034 27.7118
RightForeArm  168.66 63.9289 159.857
RightHand  -0.0414483 -5.00222 -1.97063
LeftUpLeg  -10.084 18.7208 2.8266
LeftLeg  13.7004 -1.4137 -1.84274
LeftFoot  1.02181 0.447161 -4.18384
LeftToes  1.06244e-005 4.65869e-005 -8.65518e-006
1511
root  33.6718 39.7415 10.1762 164.91 75.6931 165.09
RightUpLeg  -8.64022 -26.5721 -14.1488
RightLeg  21.4751 -11.1735 -5.01246
RightFoot  -2.40188 -0.503023 6.2183
RightToes  0.000481921 0.542163 -0.142578
Spine  22.6323 0.776284 13.8077
Spine1  9.4296 6.77635 -11.4657
HEad  5.34818 -17.8747 -1.74586
LeftShoulder1  6.5872 -11.3071 -38.3099
LeftArm  -9.08769 16.8043 -23.4878
LeftForeArm  -169.023 -56.7623 -166.453
LeftHand  -0.25398 0.0180481 5.50724
RightShoulder  2.75163 6.05329 22.5582
RightArm  -32.199 19.7588 21.1418
RightForeArm  135.743 77.1901 125.531
RightHand  -0.137745 -3.25681 -5.598
LeftUpLeg  -10.6696 16.9237 2.27651
LeftLeg  12.7385 -1.67011 -2.48003
LeftFoot  1.99549 0.481965 -4.22413
LeftToes  1.06244e-005 4.65869e-005 -8.65518e-006
1512
root  33.4241 39.7025 10.3197 164.471 74.2003 164.376
RightUpLeg  -9.53816 -26.0582 -14.4018
RightLeg  22.6823 -12.7392 -5.99345
RightFoot  -2.52794 -0.489842 6.12591
RightToes  0.000481921 0.542163 -0.142578
Spine  23.3109 1.20516 15.5611
Spine1  9.54513 8.65093 -14.8538
HEad  5.98787 -18.4127 -1.49761
LeftShoulder1  6.59465 -11.4673 -37.9016
LeftArm  -12.1654 14.7795 -21.833
LeftForeArm  -167.663 -55.988 -166.941
LeftHand  -0.25398 0.0180481 5.50724
RightShoulder  2.22588 5.54299 18.0835
RightArm  -38.4996 34.9734 14.09
RightForeArm  41.4164 67.9213 26.4702
RightHand  -0.653606 2.40241 -9.89616
LeftUpLeg  -11.1645 15.2595 1.75161
LeftLeg  11.9619 -1.07541 -2.86237
LeftFoot  2.74919 0.530756 -4.42961
LeftToes  1.06244e-005 4.65869e-005 -8.65518e-006
1513
root  33.2112 39.6673 10.4432 163.003 73.7041 162.753
RightUpLeg  -10.4479 -25.6453 -14.6837
RightLeg  23.6512 -13.3197 -6.51674
RightFoot  -2.61588 -0.471549 5.94072
RightToes  0.000481921 0.542163 -0.142578
Spine  24.3104 1.42571 17.4017
Spine1  9.71668 10.5803 -18.7762
HEad  6.03363 -18.6236 -0.875096
LeftShoulder1  6.71436 -11.9875 -37.2222
LeftArm  -14.883 13.7851 -21.6264
LeftForeArm  -166.704 -55.1408 -167.418
LeftHand  -0.25398 0.0180481 5.50724
RightShoulder  1.64854 4.93423 12.4692
RightArm  -47.0469 48.9106 5.93531
RightForeArm  28.5416 32.3496 4.32419
RightHand  -1.32276 7.93405 -12.0429
LeftUpLeg  -11.274 13.8137 1.47282
LeftLeg  11.2006 0.239132 -3.21103
LeftFoot  3.32165 0.562729 -4.53058
LeftToes  1.06244e-005 4.65869e-005 -8.65518e-006
1514
root  33.0859 39.6607 10.5487 162.108 73.3289 161.612
RightUpLeg  -11.0505 -26.4918 -14.9216
RightLeg  24.0088 -12.7857 -6.36965
RightFoot  -2.6856 -0.445623 5.64073
RightToes  0.000481921 0.542163 -0.142578
Spine  25.4308 1.74833 18.89
Spine1  9.15394 12.3033 -22.1968
HEad  6.03332 -19.1856 -0.31911
LeftShoulder1  6.75826 -12.3576 -36.5084
LeftArm  -15.7612 13.0587 -22.8726
LeftForeArm  -166.421 -54.5322 -167.718
LeftHand  -0.25398 0.0180481 5.50724
RightShoulder  0.961097 3.53242 5.85992
RightArm  -54.8777 57.7722 -0.766054
RightForeArm  32.3901 2.57474 -1.80425
RightHand  -1.2054 9.28486 -9.95786
LeftUpLeg  -11.1795 12.1784 1.48654
LeftLeg  10.1263 1.81779 -3.69241
LeftFoot  3.94503 0.595847 -4.61777
LeftToes  1.06244e-005 4.65869e-005 -8.65518e-006
1515
root  33.1088 39.7172 10.6278 163.636 71.951 162.583
RightUpLeg  -10.8846 -29.3611 -15.0558
RightLeg  23.3679 -11.6097 -5.66838
RightFoot  -2.68888 -0.424653 5.36651
RightToes  0.000481921 0.542163 -0.142578
Spine  25.5611 2.28391 18.9588
Spine1  7.99962 12.9148 -23.2174
HEad  6.28668 -19.7889 0.363711
LeftShoulder1  6.85164 -12.4501 -36.8375
LeftArm  -14.99 12.9376 -24.6238
LeftForeArm  -165.105 -53.6505 -168.199
LeftHand  -0.25398 0.0180481 5.50724
RightShoulder  0.523746 1.76957 1.95724
RightArm  -57.1697 60.4029 0.327087
RightForeArm  31.0544 -5.35123 -3.78036
RightHand  -1.05025 9.14844 -8.84254
LeftUpLeg  -11.0482 9.46126 1.74373
LeftLeg  8.25514 3.33119 -4.25326
LeftFoot  4.88717 0.672582 -4.92296
LeftToes  1.06244e-005 4.65869e-005 -8.65518e-006
1516
root  33.276 39.8426 10.6732 166.872 69.6609 165.265
RightUpLeg  -9.57552 -32.9146 -15.1022
RightLeg  21.6972 -10.827 -4.89811
RightFoot  -2.49081 -0.426619 5.28812
RightToes  0.000481921 0.542163 -0.142578
Spine  24.2636 2.74512 17.4956
Spine1  7.36742 12.2808 -21.7065
HEad  6.48171 -20.0716 1.82478
LeftShoulder1  7.13956 -12.5319 -38.3546
LeftArm  -13.6774 13.8157 -26.4139
LeftForeArm  -163.696 -52.3204 -168.857
LeftHand  -0.25398 0.0180481 5.50724
RightShoulder  0.631244 1.38434 4.93249
RightArm  -56.8831 58.3338 6.61847
RightForeArm  23.1481 5.49324 -1.60722
RightHand  -1.60876 10.2757 -12.297
LeftUpLeg  -10.523 6.15074 2.19532
LeftLeg  5.5094 4.31227 -4.64893
LeftFoot  6.11504 0.793615 -5.40926
LeftToes  1.06244e-005 4.65869e-005 -8.65518e-006
1517
root  33.5118 39.9908 10.6897 169.53 67.7061 167.85
RightUpLeg  -7.38473 -34.0852 -15.1945
RightLeg  19.6094 -11.9112 -4.41734
RightFoot  -2.08709 -0.453463 5.42111
RightToes  0.000481921 0.542163 -0.142578
Spine  22.4118 2.87349 15.5909
Spine1  7.86661 11.2649 -19.545
HEad  6.45172 -19.863 3.68021
LeftShoulder1  7.46893 -12.7278 -39.7808
LeftArm  -12.1874 14.6705 -28.5295
LeftForeArm  -164.426 -51.5362 -169.125
LeftHand  -0.25398 0.0180481 5.50724
RightShoulder  1.31318 3.27305 12.1949
RightArm  -52.2067 53.3148 13.049
RightForeArm  14.0748 30.3792 6.11517
RightHand  -2.34247 11.6874 -16.344
LeftUpLeg  -9.28149 4.31403 2.63869
LeftLeg  2.63268 4.0273 -4.63715
LeftFoot  7.21288 0.929075 -5.95437
LeftToes  1.06244e-005 4.65869e-005 -8.65518e-006
